<svg xmlns="http://www.w3.org/2000/svg" viewBox="0 0 360 72" width="360" height="72" role="img" aria-label="DaleControl">
  <defs>
    <linearGradient id="dcg" x1="0" y1="0" x2="1" y2="1">
      <stop offset="0" stop-color="#8b5cf6"/>
      <stop offset="1" stop-color="#7c3aed"/>
    </linearGradient>
  </defs>
  <rect x="8" y="8" width="56" height="56" rx="16" fill="url(#dcg)"/>
  <g transform="translate(20 20) scale(1.333)">
    <path d="M12 3.2c-2 0-3-1-5-1C4.7 2.2 3 4 3 7c0 2.3.8 3.7 1.4 6 .5 1.9.7 4.3 1.5 6.4.4 1 .9 1.6 1.6 1.6.9 0 1.2-.9 1.4-2 .3-1.4.5-3 1.6-3s1.3 1.6 1.6 3c.2 1.1.5 2 1.4 2 .7 0 1.2-.6 1.6-1.6.8-2.1 1-4.5 1.5-6.4C20.2 10.7 21 9.3 21 7c0-3-1.7-4.8-4-4.8-2 0-3 1-5 1Z" fill="#ffffff"/>
  </g>
  <text x="80" y="47" font-family="'IBM Plex Sans', 'Segoe UI', system-ui, sans-serif" font-size="30" font-weight="600" letter-spacing="-0.5" fill="#ffffff">DaleControl</text>
</svg>
